# xmcd
#
# Track frame offsets:
#	150
#	4202
#	18257
#	30145
#	37012
#	53367
#	71071
#	82467
#	89629
#	100601
#	115195
#	119850
#	133870
#	146054
#	161244
#	168744
#	183889
#
# Disc length: 2643 seconds
#
# Revision: 1
# Processed by: cddbd v1.5.2PL0 Copyright (c) Steve Scherf et al.
# Submitted via: EasyCDDAExtractor 16.0.9.1
#
DISCID=ef0a5111
DTITLE=Trzepiecinska Fronczewski - Lato Teatr Malucha Cztety Pory Roku
DYEAR=2012
DGENRE=
TTITLE0=Wiatr
TTITLE1=Przyszlo lato
TTITLE2=Sloneczko mamy
TTITLE3=Zniechecony Wiatr
TTITLE4=Teatr Chmur
TTITLE5=Lesna drozka
TTITLE6=Malowanie teczy
TTITLE7=Wiatr umie szumiec
TTITLE8=Co to takiego
TTITLE9=Rozmowa o stukaniu
TTITLE10=Podroze wiatru
TTITLE11=Slonce zaprasza na wakacje
TTITLE12=Jade z tata samochodem na wakacje
TTITLE13=Wakacyjne pytania
TTITLE14=Leniwy wiatr
TTITLE15=Wreszcie lato
TTITLE16=Najlepszy czas na koncert
EXTD=
EXTT0=
EXTT1=
EXTT2=
EXTT3=
EXTT4=
EXTT5=
EXTT6=
EXTT7=
EXTT8=
EXTT9=
EXTT10=
EXTT11=
EXTT12=
EXTT13=
EXTT14=
EXTT15=
EXTT16=
PLAYORDER=
